<svg viewBox="0 0 395.52 132.22105150544016" height="132.22105150544016" width="395.52"><path d="M394.594 28.359C392.735 14.634 387.435 10.819 387.435 10.819 371.165-3.317 350.86-0.27 332.619 1.761 300.414 1.843 268.339 4.863 236.208 6.482 168.767 6.729 100.749 2.667 33.643 12.686 27.339 15.76-6.54 13.289 1.121 30.116 3.129 37.115 10.456 44.883 10.232 51.306 11.236 52.432 12.631 49.851 13.226 51.471 15.309 55.835 18.711 53.777 21.501 56.357 17.614 63.247 20.403 68.983 23.062 74.995 18.377 76.559 12.371 75.818 9.675 81.006 9.396 84.767 7.89 84.053 6.235 83.888 5.026 83.778 2.59 84.19 2.999 85.37 4.394 89.405-1.594 91.739 2.162 95.691-0.422 99.973 3.948 103.679 3.353 108.318 3.278 109.251 3.687 110.047 4.338 110.267 7.22 111.447 3.018 113.753 3.464 116.251 33.029 133.324 65.104 121.521 95.394 129.371 103.259 123.881 97.346 131.32 100.489 130.167 102.943 128.822 104.728 134.394 107.499 131.238 107.927 130.332 107.276 128.191 108.8 128.603 109.6 128.822 110.307 128.767 110.418 127.505 110.586 125.611 109.117 126.791 108.726 125.803 112.947 120.807 111.906 132.693 115.866 132.198 115.68 130.744 114.528 128.658 116.889 128.932 119.232 126.846 119.306 125.117 121.389 129.81 121.463 130.826 121.835 131.54 122.43 132.034 128.938 126.928 135.409 133.845 142.233 131.54 146.417 129.014 150.433 132.912 154.672 131.951 156.16 131.183 157.666 129.81 159.098 132.116 176.632 132.61 195.319 130.552 211.943 132.198 256.364 129.124 303.835 133.461 350.674 129.399 361.719 127.834 373.192 125.611 383.958 123.826 383.958 123.826 392.679 118.941 392.679 96.981S394.538 77.767 394.817 60.282C395.096 42.797 396.398 42.083 394.538 28.359Z" opacity="1" fill="#000000" data-fill-palette-color="tertiary"></path><g transform="matrix(1,0,0,1,55.76832,26.230666666666668)"><svg width="283.98335999999995" viewBox="4.130000114440918 -35.54999923706055 164.52999877929688 46.220001220703125" height="79.75971817210682" data-palette-color="#ffffff"><path d="M17.26-13.94L7.79-13.94 7.79-17.75 17.26-17.75Q20.02-17.75 21.72-18.64 23.41-19.53 24.21-21.09 25-22.66 25-24.66L25-24.66Q25-26.49 24.21-28.1 23.41-29.71 21.72-30.71 20.02-31.71 17.26-31.71L17.26-31.71 8.86-31.71 8.86 0 4.13 0 4.13-35.55 17.26-35.55Q21.29-35.55 24.07-34.16 26.86-32.76 28.3-30.32 29.74-27.88 29.74-24.71L29.74-24.71Q29.74-21.29 28.3-18.87 26.86-16.46 24.07-15.2 21.29-13.94 17.26-13.94L17.26-13.94ZM50.29-4.52L50.29-18.12Q50.29-20.48 48.89-21.89 47.48-23.29 44.75-23.29L44.75-23.29Q43.06-23.29 41.78-22.71 40.5-22.12 39.79-21.17 39.08-20.21 39.08-19.09L39.08-19.09 34.52-19.09Q34.52-21 35.81-22.79 37.11-24.58 39.46-25.74 41.82-26.9 45.02-26.9L45.02-26.9Q47.9-26.9 50.12-25.93 52.34-24.95 53.6-22.99 54.86-21.02 54.86-18.07L54.86-18.07 54.86-5.76Q54.86-4.44 55.09-2.95 55.32-1.46 55.78-0.39L55.78-0.39 55.78 0 51.02 0Q50.68-0.78 50.49-2.09 50.29-3.39 50.29-4.52L50.29-4.52ZM51.07-16.02L51.12-12.84 46.58-12.84Q42.72-12.84 40.62-11.62 38.52-10.4 38.52-7.96L38.52-7.96Q38.52-6.05 39.8-4.74 41.09-3.42 43.55-3.42L43.55-3.42Q45.63-3.42 47.21-4.3 48.8-5.18 49.73-6.47 50.66-7.76 50.73-8.96L50.73-8.96 52.68-6.79Q52.51-5.76 51.76-4.52 51-3.27 49.74-2.14 48.48-1 46.76-0.26 45.04 0.49 42.89 0.49L42.89 0.49Q40.21 0.49 38.19-0.55 36.18-1.59 35.07-3.37 33.96-5.15 33.96-7.32L33.96-7.32Q33.96-11.6 37.18-13.81 40.4-16.02 45.85-16.02L45.85-16.02 51.07-16.02ZM69.36-2.73L76.7-26.42 81.56-26.42 70.97 4.08Q70.6 5.05 70 6.19 69.4 7.32 68.49 8.35 67.57 9.38 66.25 10.02 64.94 10.67 63.13 10.67L63.13 10.67Q62.76 10.67 62.25 10.6 61.74 10.52 61.27 10.44 60.81 10.35 60.57 10.28L60.57 10.28 60.57 6.64Q60.76 6.67 61.19 6.71 61.62 6.76 61.79 6.76L61.79 6.76Q64.08 6.76 65.38 5.81 66.67 4.86 67.48 2.42L67.48 2.42 69.36-2.73ZM64.03-26.42L70.84-5.88 72.02-1.12 68.75 0.51 59.05-26.42 64.03-26.42ZM99.48-32.42L87.74 0 82.85 0 96.43-35.55 99.55-35.55 99.48-32.42ZM109.32 0L97.53-32.42 97.48-35.55 100.58-35.55 114.18 0 109.32 0ZM108.73-13.13L108.73-9.3 88.74-9.3 88.74-13.13 108.73-13.13ZM122.82-21.34L122.82 10.16 118.25 10.16 118.25-26.42 122.4-26.42 122.82-21.34ZM140.59-13.43L140.59-12.92Q140.59-9.06 139.39-6.03 138.2-3 135.92-1.26 133.63 0.49 130.36 0.49L130.36 0.49Q126.97 0.49 124.67-0.98 122.38-2.44 121.08-5.14 119.79-7.84 119.4-11.52L119.4-11.52 119.4-14.36Q119.79-18.24 121.1-21.04 122.4-23.85 124.68-25.38 126.97-26.9 130.29-26.9L130.29-26.9Q133.61-26.9 135.9-25.22 138.2-23.54 139.39-20.5 140.59-17.46 140.59-13.43L140.59-13.43ZM136.03-12.92L136.03-13.43Q136.03-16.06 135.28-18.27 134.54-20.48 132.96-21.8 131.39-23.12 128.92-23.12L128.92-23.12Q127.24-23.12 125.99-22.53 124.75-21.95 123.87-20.96 122.99-19.97 122.44-18.71 121.89-17.46 121.62-16.11L121.62-16.11 121.62-9.74Q122.11-8.03 122.98-6.53 123.84-5.03 125.3-4.1 126.75-3.17 128.97-3.17L128.97-3.17Q131.41-3.17 132.97-4.52 134.54-5.86 135.28-8.07 136.03-10.28 136.03-12.92L136.03-12.92ZM150.89-21.34L150.89 10.16 146.33 10.16 146.33-26.42 150.48-26.42 150.89-21.34ZM168.66-13.43L168.66-12.92Q168.66-9.06 167.47-6.03 166.27-3 163.99-1.26 161.71 0.49 158.43 0.49L158.43 0.49Q155.04 0.49 152.75-0.98 150.45-2.44 149.16-5.14 147.86-7.84 147.47-11.52L147.47-11.52 147.47-14.36Q147.86-18.24 149.17-21.04 150.48-23.85 152.76-25.38 155.04-26.9 158.36-26.9L158.36-26.9Q161.68-26.9 163.98-25.22 166.27-23.54 167.47-20.5 168.66-17.46 168.66-13.43L168.66-13.43ZM164.1-12.92L164.1-13.43Q164.1-16.06 163.35-18.27 162.61-20.48 161.03-21.8 159.46-23.12 156.99-23.12L156.99-23.12Q155.31-23.12 154.06-22.53 152.82-21.95 151.94-20.96 151.06-19.97 150.51-18.71 149.96-17.46 149.69-16.11L149.69-16.11 149.69-9.74Q150.18-8.03 151.05-6.53 151.92-5.03 153.37-4.1 154.82-3.17 157.04-3.17L157.04-3.17Q159.48-3.17 161.05-4.52 162.61-5.86 163.35-8.07 164.1-10.28 164.1-12.92L164.1-12.92Z" opacity="1" transform="matrix(1,0,0,1,0,0)" fill="#ffffff" class="undefined-text-0" data-fill-palette-color="quaternary" id="text-0"></path></svg></g></svg>